<svg xmlns="http://www.w3.org/2000/svg" xmlns:xlink="http://www.w3.org/1999/xlink" viewBox="0,0,256,256" width="64px" height="64px"><g transform=""><g fill="#ff4949" fill-rule="nonzero" stroke="none" stroke-width="1" stroke-linecap="butt" stroke-linejoin="miter" stroke-miterlimit="10" stroke-dasharray="" stroke-dashoffset="0" font-family="none" font-weight="none" font-size="none" text-anchor="none" style="mix-blend-mode: normal"><g transform="scale(4,4)"><path d="M31.03125,1.99219c-1.92187,0 -3.86328,0.19531 -5.76172,0.57813c-15.67578,3.16016 -25.85937,18.48438 -22.69922,34.16016c2.71875,13.48828 14.66406,23.27344 28.39844,23.27344c1.92188,0 3.86328,-0.19141 5.76172,-0.57812c15.67578,-3.15625 25.85938,-18.48047 22.69922,-34.15625c-2.71875,-13.48828 -14.66406,-23.27734 -28.39844,-23.27734zM31.03125,3.99219c12.78516,0 23.90625,9.11328 26.4375,21.67188c2.94141,14.59375 -6.53906,28.86328 -21.13672,31.80469c-1.76953,0.35547 -3.57422,0.53516 -5.36328,0.53516c-12.78516,0 -23.90625,-9.10937 -26.4375,-21.66797c-2.94141,-14.59375 6.53906,-28.86328 21.13672,-31.80469c1.76953,-0.35547 3.57422,-0.53906 5.36328,-0.53906zM29.58984,7.15625c-5.49609,0.21875 -10.72656,2.39063 -14.73437,6.10938c-0.40625,0.37891 -0.42969,1.01172 -0.05469,1.41406c0.19922,0.21094 0.46484,0.32031 0.73047,0.32031c0.24609,0 0.49219,-0.08984 0.68359,-0.26562c3.66016,-3.39844 8.4375,-5.37891 13.45313,-5.58203c0.55078,-0.02344 0.98047,-0.48828 0.95703,-1.03906c-0.01953,-0.55078 -0.46484,-0.96875 -1.03516,-0.95703zM34.125,7.42188c-0.54297,-0.09375 -1.05859,0.28516 -1.14453,0.82813c-0.08594,0.54688 0.28516,1.05859 0.83203,1.14844c0.75,0.11719 1.50391,0.28125 2.23828,0.48438c0.08984,0.02344 0.17578,0.03906 0.26563,0.03906c0.4375,0 0.83984,-0.29687 0.96484,-0.73828c0.14453,-0.53125 -0.16797,-1.08203 -0.70312,-1.23047c-0.80469,-0.21875 -1.62891,-0.39844 -2.45312,-0.53125zM44.51563,13c-5.75781,0 -12.51172,3.3125 -18.0625,8.86719l-0.14062,0.13672c-0.57031,0.57031 -1.10547,1.10938 -1.65625,1.6875c-0.35547,0.375 -0.83984,0.60547 -1.32812,0.62891c-4.36719,0.21484 -7.6875,1.69141 -10.77734,4.78125l-2.25781,2.25781c-0.28516,0.28516 -0.375,0.71484 -0.21875,1.08984c0.15625,0.375 0.51953,0.61719 0.92578,0.61719h8.77344l-0.30078,0.89844c-0.35937,1.08594 -0.08203,2.26172 0.72656,3.06641l2.76953,2.76953c0.79297,0.79688 2.00391,1.08203 3.06641,0.72656l0.90234,-0.29687v8.76953c0,0.40234 0.24219,0.76953 0.61328,0.92188c0.125,0.05469 0.25391,0.07813 0.38672,0.07813c0.25781,0 0.51563,-0.10156 0.70313,-0.29297l2.26172,-2.25781c3.07031,-3.07031 4.54688,-6.375 4.77344,-10.70312c0.02734,-0.51172 0.26563,-0.99609 0.66797,-1.36328c0.57422,-0.51953 1.14063,-1.09766 1.78906,-1.83594c6.02344,-6.01953 9.37891,-13.55078 8.75781,-19.64844c-0.05469,-0.51172 -0.48437,-0.89844 -0.99609,-0.89844zM44.51563,15h0.4375c0.14453,5.29688 -3.01172,11.91406 -8.27734,17.17578c-0.64062,0.72266 -1.15625,1.25391 -1.67578,1.72656c-0.79687,0.72266 -1.26562,1.69531 -1.32031,2.73828c-0.20312,3.85156 -1.45703,6.66016 -4.19531,9.39063l-0.54687,0.55469v-7.74609c0,-0.32422 -0.15625,-0.625 -0.41797,-0.8125c-0.17187,-0.125 -0.37891,-0.1875 -0.58203,-0.1875c-0.10937,0 -0.21484,0.01563 -0.31641,0.05078l-2.21484,0.73438c-0.35547,0.12109 -0.76172,0.02734 -1.02734,-0.23828l-2.76562,-2.76953c-0.26953,-0.26953 -0.36328,-0.66016 -0.24219,-1.02344l0.73828,-2.21484c0.10156,-0.30469 0.05078,-0.64062 -0.13672,-0.89844c-0.1875,-0.26172 -0.49219,-0.41797 -0.8125,-0.41797h-7.74609l0.55078,-0.54687c2.75,-2.75 5.57813,-4.00781 9.46484,-4.19922c1.01563,-0.05078 1.96484,-0.49219 2.67969,-1.25c0.53516,-0.56641 1.05859,-1.08984 1.61719,-1.64453l0.13672,-0.14062c5.1875,-5.1875 11.41406,-8.28125 16.65234,-8.28125zM36,20c-2.20703,0 -4,1.79297 -4,4c0,2.20703 1.79297,4 4,4c2.20703,0 4,-1.79297 4,-4c0,-2.20703 -1.79297,-4 -4,-4zM36,21.75c1.24219,0 2.25,1.00781 2.25,2.25c0,1.24219 -1.00781,2.25 -2.25,2.25c-1.24219,0 -2.25,-1.00781 -2.25,-2.25c0,-1.24219 1.00781,-2.25 2.25,-2.25zM18.16406,37.51563c-0.19531,0 -0.40625,0.0625 -0.57031,0.17188c-0.48437,0.31641 -0.95312,0.69531 -1.32422,1.0625c-1.71875,1.72266 -2.63672,4.10938 -2.51562,6.54688c0.02734,0.49219 0.41016,0.89063 0.90234,0.94141c0.25781,0.02734 0.51953,0.03906 0.78125,0.03906c2.16016,0 4.22266,-0.87109 5.80859,-2.45703c0.34375,-0.34766 0.70703,-0.78516 1.01563,-1.24219c0.16797,-0.25 0.21875,-0.60547 0.12891,-0.89453c-0.16406,-0.52344 -0.64062,-0.74219 -1.10937,-0.92187c-0.90234,-0.34766 -1.61719,-1.12109 -1.92187,-2.06641c-0.12109,-0.38281 -0.375,-1.17969 -1.19531,-1.17969zM17.77734,40.07813c0.47656,0.94531 1.22656,1.73438 2.14063,2.24609c-0.03125,0.02734 -0.05859,0.05469 -0.08594,0.08203c-1.125,1.125 -2.55469,1.78125 -4.0625,1.86328c0.13281,-1.55078 0.79688,-2.98047 1.91797,-4.10156c0.02734,-0.03125 0.05859,-0.05859 0.08984,-0.08984zM48.84375,40.90625c-0.38672,-0.04687 -0.78125,0.14063 -0.98437,0.5c-0.27344,0.48047 -0.10156,1.08984 0.375,1.36328l1.74219,0.98438c0.15625,0.08984 0.32422,0.13281 0.49219,0.13281c0.34766,0 0.6875,-0.18359 0.87109,-0.50781c0.27344,-0.48047 0.10547,-1.08984 -0.375,-1.36328l-1.74219,-0.98437c-0.12109,-0.07031 -0.24609,-0.10937 -0.37891,-0.125zM45.65625,44.96484c-0.25391,0.00391 -0.50781,0.10156 -0.70312,0.30078c-0.38672,0.39063 -0.38281,1.02344 0.01172,1.41016l1.42578,1.40234c0.19531,0.19141 0.44922,0.28516 0.70313,0.28516c0.25781,0 0.51563,-0.09766 0.71094,-0.29687c0.38672,-0.39453 0.38281,-1.02734 -0.01172,-1.41406l-1.42578,-1.40234c-0.19531,-0.19141 -0.45312,-0.28906 -0.71094,-0.28516zM41.51953,48.10547c-0.125,0.01563 -0.25391,0.0625 -0.375,0.12891c-0.47266,0.28125 -0.63281,0.89453 -0.35156,1.37109l1.01563,1.72266c0.1875,0.31641 0.51953,0.49219 0.86328,0.49219c0.17188,0 0.34766,-0.04297 0.50391,-0.13672c0.47656,-0.28125 0.63672,-0.89453 0.35547,-1.37109l-1.01562,-1.72266c-0.21094,-0.35547 -0.60937,-0.53516 -0.99609,-0.48437zM37.09375,50.09375c-0.125,-0.01562 -0.26172,-0.00781 -0.39453,0.02734c-0.53125,0.14844 -0.84375,0.69922 -0.69531,1.23047l0.53125,1.92969c0.125,0.44141 0.52734,0.73047 0.96484,0.73047c0.08984,0 0.17578,-0.01172 0.26563,-0.03906c0.53516,-0.14453 0.84766,-0.69531 0.69922,-1.22656l-0.53125,-1.92969c-0.11328,-0.39844 -0.45312,-0.67187 -0.83984,-0.72266zM31.91797,50.79297c-0.55078,0.00391 -0.99609,0.45703 -0.99219,1.00781l0.01563,2c0.00781,0.55078 0.45313,0.99219 1,0.99219h0.01172c0.55078,-0.00391 0.99609,-0.45703 0.98828,-1.01172l-0.01562,-2c-0.00391,-0.54687 -0.44922,-0.98828 -1,-0.98828z"></path></g></g></g></svg>